<?xml version="1.0" standalone="no"?>
<!DOCTYPE svg PUBLIC "-//W3C//DTD SVG 20010904//EN"
 "http://www.w3.org/TR/2001/REC-SVG-20010904/DTD/svg10.dtd">
<svg version="1.0" xmlns="http://www.w3.org/2000/svg"
 width="385.000000pt" height="232.000000pt" viewBox="0 0 385.000000 232.000000"
 preserveAspectRatio="xMidYMid meet">

<g transform="translate(0.000000,232.000000) scale(0.100000,-0.100000)"
fill="#000000" stroke="none">
<path d="M2730 821 c0 -25 -3 -57 -6 -71 -4 -20 -3 -22 5 -10 7 10 11 11 11 3
0 -7 7 -13 15 -13 8 0 15 -7 15 -15 0 -19 22 -9 61 28 22 21 28 23 43 12 16
-13 16 -15 -10 -44 -15 -17 -30 -27 -34 -22 -3 6 -11 2 -17 -8 -10 -16 -8 -18
13 -15 20 2 24 -2 24 -22 0 -18 20 -46 67 -92 36 -37 63 -61 59 -54 -4 6 -3
12 2 12 17 0 43 103 36 140 -25 123 -98 191 -224 208 l-60 9 0 -46z"/>
<path d="M2925 460 c-3 -5 -1 -10 4 -10 6 0 11 5 11 10 0 6 -2 10 -4 10 -3 0
-8 -4 -11 -10z"/>
</g>
</svg>
